<svg width="25" height="25" viewBox="0 0 25 25" fill="none" xmlns="http://www.w3.org/2000/svg">
<mask id="mask0_974_3375" style="mask-type:alpha" maskUnits="userSpaceOnUse" x="0" y="0" width="25" height="25">
<rect x="0.115234" y="0.376221" width="24" height="24" fill="#D9D9D9"/>
</mask>
<g mask="url(#mask0_974_3375)">
<path d="M3.11523 13.8762L11.1152 2.37622V13.8762H3.11523ZM6.94023 11.8762H9.11523V8.75122L6.94023 11.8762ZM12.6152 13.8762C12.8152 13.4096 13.0319 12.5929 13.2652 11.4262C13.4986 10.2596 13.6152 9.07622 13.6152 7.87622C13.6152 6.67622 13.5027 5.44289 13.2777 4.17622C13.0527 2.90955 12.8319 1.97622 12.6152 1.37622C13.6319 1.67622 14.6444 2.23455 15.6527 3.05122C16.6611 3.86789 17.5694 4.84289 18.3777 5.97622C19.1861 7.10955 19.8444 8.35539 20.3527 9.71372C20.8611 11.0721 21.1152 12.4596 21.1152 13.8762H12.6152ZM15.2152 11.8762H18.9152C18.6319 10.5929 18.1694 9.41789 17.5277 8.35122C16.8861 7.28455 16.2069 6.37622 15.4902 5.62622C15.5236 5.97622 15.5527 6.33872 15.5777 6.71372C15.6027 7.08872 15.6152 7.47622 15.6152 7.87622C15.6152 8.65955 15.5777 9.38455 15.5027 10.0512C15.4277 10.7179 15.3319 11.3262 15.2152 11.8762ZM9.11523 19.3762C8.51523 19.3762 7.9569 19.2346 7.44023 18.9512C6.92357 18.6679 6.4819 18.3096 6.11523 17.8762C5.8819 18.1262 5.62773 18.3596 5.35273 18.5762C5.07773 18.7929 4.77357 18.9679 4.44023 19.1012C3.8569 18.6679 3.36107 18.1304 2.95273 17.4887C2.5444 16.8471 2.26523 16.1429 2.11523 15.3762H22.1152C21.9652 16.1429 21.6861 16.8471 21.2777 17.4887C20.8694 18.1304 20.3736 18.6679 19.7902 19.1012C19.4569 18.9679 19.1527 18.7929 18.8777 18.5762C18.6027 18.3596 18.3486 18.1262 18.1152 17.8762C17.7319 18.3096 17.2861 18.6679 16.7777 18.9512C16.2694 19.2346 15.7152 19.3762 15.1152 19.3762C14.5152 19.3762 13.9569 19.2346 13.4402 18.9512C12.9236 18.6679 12.4819 18.3096 12.1152 17.8762C11.7486 18.3096 11.3069 18.6679 10.7902 18.9512C10.2736 19.2346 9.71523 19.3762 9.11523 19.3762ZM2.11523 23.3762V21.3762H3.11523C3.64857 21.3762 4.1694 21.2929 4.67773 21.1262C5.18607 20.9596 5.66523 20.7096 6.11523 20.3762C6.56523 20.7096 7.0444 20.9554 7.55273 21.1137C8.06107 21.2721 8.5819 21.3512 9.11523 21.3512C9.64857 21.3512 10.1652 21.2721 10.6652 21.1137C11.1652 20.9554 11.6486 20.7096 12.1152 20.3762C12.5652 20.7096 13.0444 20.9554 13.5527 21.1137C14.0611 21.2721 14.5819 21.3512 15.1152 21.3512C15.6486 21.3512 16.1652 21.2721 16.6652 21.1137C17.1652 20.9554 17.6486 20.7096 18.1152 20.3762C18.5819 20.7096 19.0652 20.9596 19.5652 21.1262C20.0652 21.2929 20.5819 21.3762 21.1152 21.3762H22.1152V23.3762H21.1152C20.5986 23.3762 20.0902 23.3137 19.5902 23.1887C19.0902 23.0637 18.5986 22.8762 18.1152 22.6262C17.6319 22.8762 17.1402 23.0637 16.6402 23.1887C16.1402 23.3137 15.6319 23.3762 15.1152 23.3762C14.5986 23.3762 14.0902 23.3137 13.5902 23.1887C13.0902 23.0637 12.5986 22.8762 12.1152 22.6262C11.6319 22.8762 11.1402 23.0637 10.6402 23.1887C10.1402 23.3137 9.6319 23.3762 9.11523 23.3762C8.59857 23.3762 8.09023 23.3137 7.59023 23.1887C7.09023 23.0637 6.59857 22.8762 6.11523 22.6262C5.6319 22.8762 5.14023 23.0637 4.64023 23.1887C4.14023 23.3137 3.6319 23.3762 3.11523 23.3762H2.11523Z" fill="white"/>
</g>
</svg>
