<?xml version="1.0" encoding="utf-8"?>
<svg viewBox="0 0 500 500" xmlns="http://www.w3.org/2000/svg">
  <path d="M 156.39 264.785 L 236.666 155.022 L 236.666 264.785 L 156.39 264.785 Z" style="fill: rgb(34, 65, 86);"/>
  <path d="M 305.989 247.687 Z" style="fill: rgb(70, 158, 216);"/>
  <path d="M 247.583 247.687 Z" style="fill: rgb(70, 158, 216);"/>
  <path d="M 143.322 360.013 L 143.322 344.977 L 153.99 344.977 C 159.679 344.977 165.147 344.1 170.392 342.346 C 175.637 340.591 180.837 337.375 185.993 332.698 C 191.15 337.375 196.394 340.591 201.729 342.346 C 207.062 344.1 212.485 344.977 217.997 344.977 C 223.686 344.977 229.154 344.1 234.398 342.346 C 239.643 340.591 244.844 337.375 250 332.698 C 255.157 337.375 260.401 340.591 265.735 342.346 C 271.069 344.1 276.492 344.977 282.004 344.977 C 287.693 344.977 293.161 344.1 298.406 342.346 C 303.65 340.591 308.851 337.375 314.007 332.698 C 319.163 337.375 324.364 340.591 329.609 342.346 C 334.854 344.1 340.321 344.977 346.01 344.977 L 356.678 344.977 L 356.678 360.013 L 346.01 360.013 C 340.854 360.013 335.565 359.303 330.142 357.883 C 324.719 356.463 319.341 353.831 314.007 349.989 C 308.673 353.831 303.295 356.463 297.872 357.883 C 292.449 359.303 287.16 360.013 282.004 360.013 C 276.848 360.013 271.558 359.303 266.135 357.883 C 260.712 356.463 255.334 353.831 250 349.989 C 244.666 353.831 239.288 356.463 233.865 357.883 C 228.443 359.303 223.153 360.013 217.997 360.013 C 212.841 360.013 207.551 359.303 202.129 357.883 C 196.706 356.463 191.327 353.831 185.993 349.989 C 180.66 353.831 175.281 356.463 169.858 357.883 C 164.436 359.303 159.146 360.013 153.99 360.013 L 143.322 360.013 Z" style="fill: rgb(10, 53, 81);"/>
  <path d="M 217.997 320.919 C 211.952 320.919 206.173 319.374 200.662 316.283 C 195.15 313.192 190.261 309.308 185.993 304.63 C 183.504 306.969 180.526 309.267 177.059 311.522 C 173.592 313.777 170.258 315.49 167.058 316.659 C 161.902 313.652 157.101 309.183 152.657 303.252 C 148.211 297.321 145.278 291.181 143.855 284.833 L 356.145 284.833 C 354.722 291.181 351.789 297.321 347.344 303.252 C 342.899 309.183 338.099 313.652 332.943 316.659 C 329.742 315.49 326.409 313.777 322.941 311.522 C 319.474 309.267 316.496 306.969 314.007 304.63 C 309.74 309.308 304.851 313.192 299.339 316.283 C 293.827 319.374 288.049 320.919 282.004 320.919 C 275.959 320.919 270.18 319.374 264.669 316.283 C 259.157 313.192 254.268 309.308 250 304.63 C 245.733 309.308 240.844 313.192 235.332 316.283 C 229.82 319.374 224.042 320.919 217.997 320.919 Z" style="fill: rgb(88, 94, 97);"/>
  <path d="M 279.07 249.749 L 325.742 249.749 C 322.719 235.214 317.163 221.181 309.073 207.648 C 300.984 194.116 292.138 182.922 282.537 174.068 C 283.426 179.08 284.004 184.008 284.271 188.853 C 284.537 193.698 284.671 198.125 284.671 202.135 C 284.671 209.82 284.093 218.09 282.937 226.944 C 281.781 235.799 280.492 243.4 279.07 249.749 Z" style="fill: rgb(70, 158, 216);"/>
  <path d="M 259.068 264.785 C 262.446 254.761 264.891 244.695 266.402 234.588 C 267.913 224.48 268.669 213.663 268.669 202.135 C 268.669 191.109 267.913 180.374 266.402 169.933 C 264.891 159.491 262.446 149.509 259.068 139.986 C 267.424 143.16 276.403 148.715 286.004 156.651 C 295.605 164.587 304.584 174.151 312.94 185.345 C 321.297 196.538 328.32 208.943 334.009 222.559 C 339.699 236.175 342.81 250.25 343.344 264.785 L 259.068 264.785 Z" style="fill: rgb(34, 65, 86);"/>
  <path d="M 187.06 249.749 L 220.664 249.749 L 220.664 202.887 L 187.06 249.749 Z" style="fill: rgb(34, 65, 86);"/>
  <path d="M 236.3 450 L 236.3 415.754 C 194.596 411.492 159.892 395.51 132.192 367.808 C 104.489 340.106 88.508 305.404 84.246 263.699 L 50 263.699 L 50 236.301 L 84.246 236.301 C 88.508 194.596 104.489 159.893 132.192 132.191 C 159.892 104.49 194.596 88.508 236.3 84.246 L 236.3 50 L 263.697 50 L 263.697 84.246 C 305.403 88.508 340.106 104.49 367.808 132.191 C 395.51 159.893 411.491 194.596 415.753 236.301 L 450 236.301 L 450 263.699 L 415.753 263.699 C 411.491 305.404 395.51 340.106 367.808 367.808 C 340.106 395.51 305.403 411.492 263.697 415.754 L 263.697 450 L 236.3 450 Z M 249.999 388.812 C 288.052 388.812 320.699 375.191 347.946 347.945 C 375.191 320.7 388.813 288.053 388.813 250.001 C 388.813 211.949 375.191 179.299 347.946 152.054 C 320.699 124.81 288.052 111.187 249.999 111.187 C 211.948 111.187 179.3 124.81 152.054 152.054 C 124.809 179.299 111.187 211.949 111.187 250.001 C 111.187 288.053 124.809 320.7 152.054 347.945 C 179.3 375.191 211.948 388.812 249.999 388.812 Z" style="fill: rgb(36, 53, 59);"/>
</svg>