<svg width="25" height="25" viewBox="0 0 25 25" fill="none" xmlns="http://www.w3.org/2000/svg">
<mask id="mask0_970_3369" style="mask-type:alpha" maskUnits="userSpaceOnUse" x="0" y="0" width="25" height="25">
<rect x="0.115234" y="0.376221" width="24" height="24" fill="#D9D9D9"/>
</mask>
<g mask="url(#mask0_970_3369)">
<path d="M10.715 16.3762C10.715 15.0262 10.8359 14.0554 11.0775 13.4637C11.3192 12.8721 11.8317 12.2262 12.615 11.5262C13.2984 10.9262 13.8192 10.4054 14.1775 9.96372C14.5359 9.52205 14.715 9.01789 14.715 8.45122C14.715 7.76789 14.4859 7.20122 14.0275 6.75122C13.5692 6.30122 12.9317 6.07622 12.115 6.07622C11.265 6.07622 10.6192 6.33455 10.1775 6.85122C9.73587 7.36789 9.42337 7.89289 9.24004 8.42622L6.66504 7.32622C7.01504 6.25955 7.65671 5.33455 8.59004 4.55122C9.52337 3.76789 10.6984 3.37622 12.115 3.37622C13.865 3.37622 15.2109 3.86372 16.1525 4.83872C17.0942 5.81372 17.565 6.98455 17.565 8.35122C17.565 9.18455 17.3859 9.89705 17.0275 10.4887C16.6692 11.0804 16.1067 11.7512 15.34 12.5012C14.5234 13.2846 14.0275 13.8804 13.8525 14.2887C13.6775 14.6971 13.59 15.3929 13.59 16.3762H10.715ZM12.115 22.3762C11.565 22.3762 11.0942 22.1804 10.7025 21.7887C10.3109 21.3971 10.115 20.9262 10.115 20.3762C10.115 19.8262 10.3109 19.3554 10.7025 18.9637C11.0942 18.5721 11.565 18.3762 12.115 18.3762C12.665 18.3762 13.1359 18.5721 13.5275 18.9637C13.9192 19.3554 14.115 19.8262 14.115 20.3762C14.115 20.9262 13.9192 21.3971 13.5275 21.7887C13.1359 22.1804 12.665 22.3762 12.115 22.3762Z" fill="#1C1B1F"/>
</g>
</svg>
